<svg xmlns="http://www.w3.org/2000/svg" width="11" height="2" viewBox="0 0 11 2">
    <path fill="#001246" fill-rule="nonzero" d="M10.037 0a.94.94 0 0 1 .692.286c.176.19.271.435.271.707 0 .286-.095.53-.271.721a.94.94 0 0 1-.692.286.918.918 0 0 1-.705-.3c-.19-.19-.272-.435-.272-.707 0-.272.082-.517.272-.707A.95.95 0 0 1 10.037 0zm-4.53 0a.94.94 0 0 1 .692.286c.176.19.27.435.27.707 0 .286-.094.53-.27.721A.94.94 0 0 1 5.507 2a.918.918 0 0 1-.706-.3c-.19-.19-.27-.435-.27-.707 0-.272.08-.517.27-.707A.95.95 0 0 1 5.507 0zM.977 0a.94.94 0 0 1 .691.286c.177.19.272.435.272.707 0 .286-.095.53-.272.721A.94.94 0 0 1 .977 2a.918.918 0 0 1-.706-.3C.081 1.51 0 1.266 0 .994A.95.95 0 0 1 .977 0z"/>
</svg>
