<?xml version="1.0" encoding="UTF-8"?>
<svg width="15px" height="11px" viewBox="0 0 15 11" version="1.1" xmlns="http://www.w3.org/2000/svg" xmlns:xlink="http://www.w3.org/1999/xlink">
    <!-- Generator: sketchtool 64 (101010) - https://sketch.com -->
    <title>3C993EA6-ED06-415E-ABCC-02FEA618E8AF</title>
    <desc>Created with sketchtool.</desc>
    <g id="CRM-With-Starter-Pkg" stroke="none" stroke-width="1" fill="none" fill-rule="evenodd">
        <g id="CRM-&gt;-Clients-&gt;-Debt-Settlement-Clients-&gt;-Detail-Page-&gt;-Profile-Tab" transform="translate(-311.000000, -239.000000)" fill="#001246" fill-rule="nonzero">
            <g id="Group-7" transform="translate(301.000000, 228.000000)">
                <path d="M24.114838,21.5710686 C24.1152205,21.1894663 24.1157896,20.970774 24.1165451,20.9149918 C24.1267373,20.1636152 24.0697635,19.9351086 23.7604663,19.7101059 C23.2646273,19.3494005 22.1422643,19.1474576 20.1473969,19.1474576 C18.1525295,19.1474576 17.0301665,19.3494005 16.5343274,19.7101059 C16.2250303,19.9351086 16.1680564,20.1636152 16.1782487,20.9149918 C16.1790042,20.970774 16.1795732,21.1894663 16.1799558,21.5710686 C16.1802012,21.8077302 15.982985,21.9997692 15.7394693,22 L15.7390397,22 C15.4953351,22 15.2977095,21.8081169 15.2975073,21.5712719 C15.2971452,21.1958774 15.2965961,20.9808857 15.2958597,20.9262969 C15.2821672,19.9168761 15.3939911,19.4683805 16.0055114,19.0235211 C16.6985525,18.5193583 17.9742275,18.2898305 20.1473969,18.2898305 C22.3205662,18.2898305 23.5962413,18.5193583 24.2892823,19.0235211 C24.9008027,19.4683805 25.0126266,19.9168761 24.998934,20.9262969 C24.9981977,20.9808857 24.9976485,21.1958774 24.9972865,21.5712719 C24.9970843,21.8081169 24.7994587,22 24.5557541,22 C24.3122382,22 24.1148296,21.8081478 24.1148296,21.5714861 C24.1148296,21.5713469 24.1148297,21.5712078 24.114838,21.5710686 Z M20.1473969,17.5783881 C18.2790803,17.5783881 16.764612,16.1057113 16.764612,14.2891941 C16.764612,12.4726768 18.2790803,11 20.1473969,11 C22.0157135,11 23.5301818,12.4726768 23.5301818,14.2891941 C23.5301818,16.1057113 22.0157135,17.5783881 20.1473969,17.5783881 Z M20.1473969,16.720761 C21.528229,16.720761 22.6477162,15.6321659 22.6477162,14.2891941 C22.6477162,12.9462222 21.528229,11.8576271 20.1473969,11.8576271 C18.7665648,11.8576271 17.6470776,12.9462222 17.6470776,14.2891941 C17.6470776,15.6321659 18.7665648,16.720761 20.1473969,16.720761 Z M13.7488522,16.8324388 L10.4412328,16.8324388 C10.1975467,16.8324388 10,16.6404525 10,16.4036253 C10,16.1667981 10.1975467,15.9748117 10.4412328,15.9748117 L13.7488522,15.9748117 L12.3344117,14.5914493 C12.1626461,14.4234577 12.1635308,14.1519494 12.3363877,13.9850184 C12.5092447,13.8180874 12.7886164,13.8189472 12.960382,13.9869388 L15.1223152,16.10137 C15.293312,16.2686097 15.293312,16.5386408 15.1223152,16.7058805 L12.960382,18.8203117 C12.7886164,18.9883033 12.5092447,18.9891631 12.3363877,18.8222321 C12.1635308,18.6553012 12.1626461,18.3837928 12.3344117,18.2158012 L13.7488522,16.8324388 Z" id="Shape-Copy-2"></path>
            </g>
        </g>
    </g>
</svg>